<?xml version="1.0" encoding="UTF-8"?>
<svg width="1204" height="602" version="1.1" viewBox="0 0 1204 602" xml:space="preserve" xmlns="http://www.w3.org/2000/svg" xmlns:cc="http://creativecommons.org/ns#" xmlns:dc="http://purl.org/dc/elements/1.1/" xmlns:rdf="http://www.w3.org/1999/02/22-rdf-syntax-ns#"><metadata><rdf:RDF><cc:Work rdf:about=""><dc:format>image/svg+xml</dc:format><dc:type rdf:resource="http://purl.org/dc/dcmitype/StillImage"/></cc:Work></rdf:RDF></metadata><g transform="matrix(1.3333 0 0 -1.3333 0 600.99)"><g><path d="m450.75 225c0-124.26-100.73-225-225-225s-225 100.74-225 225c0 124.27 100.73 225 225 225s225-100.73 225-225z" fill="#fff"/><path d="m901.5 225c0-124.26-100.73-225-225-225s-225 100.73-225 225c0 124.27 100.73 225 225 225s225-100.73 225-225z" fill="#666"/><path d="m225.75 442.5c-119.77 0-217.5-97.734-217.5-217.5 0-119.76 97.734-217.5 217.5-217.5 119.76 0 217.5 97.739 217.5 217.5 0 119.77-97.738 217.5-217.5 217.5zm0-60.301c87.176 0 157.2-70.019 157.2-157.2 0-87.176-70.023-157.2-157.2-157.2-87.18 0-157.2 70.023-157.2 157.2 0 87.18 70.019 157.2 157.2 157.2z" fill="#c1121c"/><g transform="matrix(1 0 0 -1 .377 450.36)"><path d="m139.51 184.51c0 8.687 2.718 15.265 8.156 19.734 5.437 4.469 11.531 6.703 18.281 6.703s12.844-2.234 18.281-6.703c5.438-4.469 8.157-11.047 8.157-19.734 0-8.602-2.719-15.16-8.157-19.672-5.437-4.508-11.531-6.766-18.281-6.766s-12.844 2.258-18.281 6.766c-5.438 4.512-8.156 11.07-8.156 19.672zm-29.735 79.328c0-17.969 7.25-31.801 21.75-41.5-5.48-4.895-9.929-10.313-13.343-16.25-3.418-5.945-5.125-12.973-5.125-21.078 0-14.844 5.082-27.453 15.25-37.828 10.164-10.375 22.711-15.563 37.64-15.563 14.926 0 27.473 5.188 37.641 15.563 10.164 10.375 15.25 22.984 15.25 37.828 0 8.105-1.731 15.133-5.188 21.078-3.461 5.937-7.851 11.355-13.172 16.25 14.426 9.781 21.641 23.617 21.641 41.5 0 16.367-5.547 29.672-16.641 39.922-11.093 10.242-24.273 15.359-39.531 15.359-15.355 0-28.558-5.117-39.609-15.359-11.043-10.25-16.563-23.555-16.563-39.922zm26.438-0.25c0 8.43 2.973 15.406 8.922 20.937 5.945 5.524 12.883 8.282 20.812 8.282 7.844 0 14.781-2.758 20.813-8.282 6.031-5.531 9.047-12.507 9.047-20.937 0-8.438-3.016-15.438-9.047-21-6.032-5.57-12.969-8.359-20.813-8.359-7.929 0-14.867 2.789-20.812 8.359-5.949 5.562-8.922 12.562-8.922 21z"/><path d="m314.53 264.59v-78.313c0-8.851-2.386-15.765-7.156-20.734-4.762-4.977-11.023-7.469-18.781-7.469-7.844 0-14.133 2.492-18.86 7.469-4.718 4.969-7.078 11.883-7.078 20.734v78.313c0 8.949 2.36 15.891 7.078 20.828 4.727 4.93 11.016 7.391 18.86 7.391 7.758 0 14.019-2.461 18.781-7.391 4.77-4.937 7.156-11.879 7.156-20.828zm-78.312 1.531v-81.359c0-16.946 5.312-30.039 15.937-39.281 10.625-9.239 22.77-13.86 36.438-13.86 13.582 0 25.707 4.621 36.375 13.86 10.664 9.242 16 22.335 16 39.281v81.359c0 16.949-5.336 30.024-16 39.219-10.668 9.187-22.793 13.781-36.375 13.781-13.668 0-25.813-4.594-36.438-13.781-10.625-9.195-15.937-22.27-15.937-39.219z"/></g></g></g></svg>
