<?xml version="1.0" encoding="UTF-8"?>
<svg width="1204" height="602" version="1.1" viewBox="0 0 1204 602" xml:space="preserve" xmlns="http://www.w3.org/2000/svg" xmlns:cc="http://creativecommons.org/ns#" xmlns:dc="http://purl.org/dc/elements/1.1/" xmlns:rdf="http://www.w3.org/1999/02/22-rdf-syntax-ns#"><metadata><rdf:RDF><cc:Work rdf:about=""><dc:format>image/svg+xml</dc:format><dc:type rdf:resource="http://purl.org/dc/dcmitype/StillImage"/></cc:Work></rdf:RDF></metadata><g transform="matrix(1.25 0 0 -1.25 0 743.62)"><g><g transform="matrix(.70909 0 0 .70909 .51716 143.18)"><path d="m338.87 594.5c-7.512 0-15.027-2.867-20.758-8.598-1.879-1.879-3.445-3.953-4.707-6.152l-15.246-26.157h-0.07l-293.1-508.04c-0.054-0.097-0.097-0.195-0.152-0.293-1.488-2.394-2.656-5.043-3.426-7.91-4.195-15.656 5.098-31.754 20.758-35.949 2.586-0.695 5.184-1.012 7.738-1h618.07c16.215 0 29.355 13.141 29.355 29.356 0 5.304-1.414 10.281-3.879 14.578-0.019 0.031-0.035 0.062-0.05 0.097l-304.37 528.41c-3.863 6.665-5.652 9.305-9.406 13.059-5.73 5.731-13.242 8.598-20.754 8.598z" fill="#fff"/><path d="m338.87 587.14c-7.125 0.051-14.949-3.59-18.781-10.406l-309.29-535.89c-1.785-3.648-2.535-6.82-2.559-10.449 0-6.496 2.875-12.66 7.848-16.84 4.383-3.394 8.535-5.16 14.121-5.16h617.91c3.77-0.035 7.547 0.871 10.977 3.133 6.453 3.898 10.402 10.883 10.41 18.426-0.184 3.894-1.144 8-2.879 10.89l-309.11 535.98c-0.027 0.047-0.059 0.094-0.09 0.14-0.031 0.047-0.062 0.094-0.094 0.145-1.097 1.754-2.472 3.305-4.039 4.633-3.59 3.109-8.086 4.976-12.824 5.316-0.531 0.047-1.062 0.078-1.59 0.082zm-308.66-578.75h-1.523 1.554zm308.34 472.54 235.7-408.54h-471.74z" fill="#c1121c"/><path d="m338.86 155.06-54.359-54.359v108.73h-56.383v32.211h56.383v62.43l54.359 54.359 54.379-54.359v-62.43h56.379v-32.211h-56.379v-108.73"/></g><path d="m721.6 564.73c-5.3267 0-10.655-2.033-14.719-6.0968-1.3324-1.3324-2.4428-2.803-3.3377-4.3623l-10.811-18.548h-0.0496l-207.84-360.24c-0.0383-0.0688-0.0688-0.13828-0.10778-0.20776-1.0551-1.6976-1.8833-3.5759-2.4293-5.6089-2.9746-11.101 3.6149-22.516 14.719-25.491 1.8337-0.49282 3.6759-0.7176 5.4869-0.70908h438.26c11.498 0 20.815 9.3181 20.815 20.816 0 3.761-1.0026 7.2901-2.7505 10.337-0.0131 0.022-0.025 0.044-0.035 0.0688l-215.82 374.69c-2.7392 4.7261-4.0078 6.5981-6.6697 9.26-4.0631 4.0638-9.3898 6.0968-14.716 6.0968z" fill="#666"/></g></g></svg>
