<?xml version="1.0" encoding="UTF-8"?>
<svg width="1204" height="602" version="1.1" viewBox="0 0 1204 602" xml:space="preserve" xmlns="http://www.w3.org/2000/svg" xmlns:cc="http://creativecommons.org/ns#" xmlns:dc="http://purl.org/dc/elements/1.1/" xmlns:rdf="http://www.w3.org/1999/02/22-rdf-syntax-ns#"><metadata><rdf:RDF><cc:Work rdf:about=""><dc:format>image/svg+xml</dc:format><dc:type rdf:resource="http://purl.org/dc/dcmitype/StillImage"/></cc:Work></rdf:RDF></metadata><g transform="matrix(1.3333 0 0 -1.3333 0 600.99)"><g><path d="m450.75 225c0-124.26-100.73-225-225-225s-225 100.74-225 225c0 124.27 100.73 225 225 225s225-100.73 225-225z" fill="#fff"/><path d="m901.5 225c0-124.26-100.73-225-225-225s-225 100.73-225 225c0 124.27 100.73 225 225 225s225-100.73 225-225z" fill="#666"/><path d="m225.75 442.5c-119.77 0-217.5-97.734-217.5-217.5 0-119.76 97.734-217.5 217.5-217.5 119.76 0 217.5 97.739 217.5 217.5 0 119.77-97.738 217.5-217.5 217.5zm0-60.301c87.176 0 157.2-70.019 157.2-157.2 0-87.176-70.023-157.2-157.2-157.2-87.18 0-157.2 70.023-157.2 157.2 0 87.18 70.019 157.2 157.2 157.2z" fill="#c1121c"/><g transform="matrix(.9375 0 0 .9375 .3764 -.37829)"><path d="m119.69 232.25h26.964c3.371 5.805 7.118 10.02 11.235 12.641 4.121 2.621 8.992 3.929 14.609 3.929 11.047 0 18.633-3.371 22.75-10.109 4.121-6.555 6.184-16.012 6.184-28.371 0-6.555-0.188-12.078-0.563-16.574-0.375-4.309-1.5-8.52-3.371-12.641-1.687-4.121-4.496-7.488-8.43-10.113-3.929-2.434-9.175-3.649-15.726-3.649-7.867 0-14.235 2.059-19.102 6.18-4.871 4.117-8.054 9.828-9.55 17.133h-28.653c0.938-8.988 3.278-16.856 7.024-23.594 3.742-6.555 8.332-11.988 13.761-16.293 5.43-4.121 11.332-7.211 17.7-9.269 6.55-1.875 13.199-2.809 19.941-2.809 9.176 0 17.512 2.059 25 6.18 7.492 4.117 13.578 9.175 18.258 15.168 4.496 5.804 7.679 12.078 9.551 18.82 1.875 6.742 2.808 16.48 2.808 29.211 0 15.73-1.121 27.156-3.371 34.269-2.246 7.305-6.367 14.141-12.359 20.508-3.93 4.309-9.082 7.77-15.45 10.395-6.367 2.808-13.105 4.211-20.222 4.211-12.172 0-22.848-3.653-32.024-10.953v45.222h79.496v28.653h-106.46z"/><path d="m336.11 197.98c0-9.55-2.527-17.042-7.582-22.472-5.058-5.43-11.894-8.145-20.507-8.145-8.614 0-15.45 2.715-20.504 8.145-5.059 5.43-7.586 12.922-7.586 22.472v84.833c0 9.546 2.527 17.039 7.586 22.468 5.054 5.434 11.89 8.149 20.504 8.149 8.613 0 15.449-2.715 20.507-8.149 5.055-5.429 7.582-12.922 7.582-22.468zm-84.832-1.687c0-8.988 1.5-17.039 4.496-24.156 3.184-7.117 7.395-13.203 12.641-18.258 5.43-5.059 11.516-8.895 18.258-11.516 6.742-2.437 13.855-3.652 21.348-3.652 7.492 0 14.605 1.215 21.347 3.652 6.93 2.621 13.016 6.364 18.258 11.235 5.246 5.054 9.363 11.14 12.359 18.257 3.184 7.305 4.778 15.45 4.778 24.438v88.203c0 8.988-1.5 17.043-4.496 24.156-2.996 7.118-7.207 13.203-12.641 18.258-5.43 5.059-11.516 8.805-18.258 11.238-6.742 2.622-13.855 3.934-21.347 3.934-7.493 0-14.7-1.312-21.629-3.934-6.743-2.433-12.735-6.179-17.977-11.238-5.246-4.867-9.457-10.953-12.641-18.258-2.996-7.113-4.496-15.168-4.496-24.156z"/></g></g></g></svg>
