<?xml version="1.0" encoding="UTF-8"?>
<svg width="1204" height="602" version="1.1" viewBox="0 0 1204 602" xml:space="preserve" xmlns="http://www.w3.org/2000/svg" xmlns:cc="http://creativecommons.org/ns#" xmlns:dc="http://purl.org/dc/elements/1.1/" xmlns:rdf="http://www.w3.org/1999/02/22-rdf-syntax-ns#"><metadata><rdf:RDF><cc:Work rdf:about=""><dc:format>image/svg+xml</dc:format><dc:type rdf:resource="http://purl.org/dc/dcmitype/StillImage"/></cc:Work></rdf:RDF></metadata><g transform="matrix(1.25 0 0 -1.25 0 601)"><g><g transform="translate(.398 -.40142)"><path d="m480.4 240.4c0-132.55-107.45-240-240-240-132.55 0-240 107.45-240 240 0 132.55 107.45 240 240 240 132.55 0 240-107.45 240-240z" fill="#fff"/><path d="m240.4 472.35c-128.02 0-231.94-103.92-231.94-231.94 0-128.03 103.92-231.94 231.94-231.94 128.03 0 231.95 103.92 231.95 231.94 0 128.02-103.92 231.94-231.95 231.94zm0-12c46.309 0 89.25-14.296 124.68-38.703l-305.92-305.92c-24.406 35.426-38.703 78.368-38.703 124.68 0 121.54 98.406 219.94 219.94 219.94zm131.92-43.902c2.418-1.816 4.793-3.683 7.133-5.594l-309.5-309.5c-1.91 2.34-3.777 4.715-5.594 7.133zm13.856-11.316c2.25-1.992 4.461-4.024 6.629-6.102l-311.03-311.03c-2.078 2.164-4.109 4.375-6.101 6.625zm12.847-12.328c2.082-2.164 4.114-4.375 6.106-6.625l-310.5-310.5c-2.25 1.992-4.461 4.023-6.625 6.105zm11.829-13.344c1.91-2.34 3.777-4.715 5.593-7.133l-307.96-307.97c-2.418 1.817-4.796 3.684-7.136 5.594zm10.793-14.383c24.406-35.426 38.703-78.367 38.703-124.67 0-121.54-98.407-219.94-219.95-219.94-46.304 0-89.246 14.297-124.67 38.703z"/></g><path d="m961.6 240c0-132.55-107.45-240-240-240-132.55 0-240 107.45-240 240 0 132.55 107.45 240 240 240 132.55 0 240-107.45 240-240z" fill="#666"/></g></g></svg>
