<?xml version="1.0" encoding="UTF-8"?>
<svg width="1204" height="602" version="1.1" viewBox="0 0 1204 602" xml:space="preserve" xmlns="http://www.w3.org/2000/svg" xmlns:cc="http://creativecommons.org/ns#" xmlns:dc="http://purl.org/dc/elements/1.1/" xmlns:rdf="http://www.w3.org/1999/02/22-rdf-syntax-ns#"><metadata><rdf:RDF><cc:Work rdf:about=""><dc:format>image/svg+xml</dc:format><dc:type rdf:resource="http://purl.org/dc/dcmitype/StillImage"/></cc:Work></rdf:RDF></metadata><g transform="matrix(1.3333 0 0 -1.3333 0 600.99)"><g><path d="m450.75 225c0-124.26-100.73-225-225-225s-225 100.74-225 225c0 124.27 100.73 225 225 225s225-100.73 225-225z" fill="#fff"/><path d="m901.5 225c0-124.26-100.73-225-225-225s-225 100.73-225 225c0 124.27 100.73 225 225 225s225-100.73 225-225z" fill="#666"/><path d="m225.75 442.5c-119.77 0-217.5-97.734-217.5-217.5 0-119.76 97.734-217.5 217.5-217.5 119.76 0 217.5 97.739 217.5 217.5 0 119.77-97.738 217.5-217.5 217.5zm0-60.301c87.176 0 157.2-70.019 157.2-157.2 0-87.176-70.023-157.2-157.2-157.2-87.18 0-157.2 70.023-157.2 157.2 0 87.18 70.019 157.2 157.2 157.2z" fill="#c1121c"/><g transform="translate(-294.58 411.19)"><path d="m447.18-280.66v159.89l-26.844-19.61v28.641l26.844 19.5h27.109v-188.42z"/><path d="m593.36-226.21v79.891c0 9.031-2.433 16.082-7.297 21.156-4.855 5.082-11.242 7.625-19.156 7.625-8 0-14.414-2.543-19.234-7.625-4.813-5.074-7.219-12.125-7.219-21.156v-79.891c0-9.117 2.406-16.187 7.219-21.219 4.82-5.031 11.234-7.546 19.234-7.546 7.914 0 14.301 2.515 19.156 7.546 4.864 5.032 7.297 12.102 7.297 21.219zm-79.89-1.547v82.985c0 17.289 5.422 30.644 16.265 40.062 10.844 9.426 23.235 14.141 37.172 14.141 13.852 0 26.219-4.715 37.094-14.141 10.883-9.418 16.328-22.773 16.328-40.062v-82.985c0-17.293-5.445-30.625-16.328-40-10.875-9.375-23.242-14.062-37.094-14.062-13.937 0-26.328 4.687-37.172 14.062-10.843 9.375-16.265 22.707-16.265 40z"/></g></g></g></svg>
