<?xml version="1.0" encoding="UTF-8"?>
<svg width="1204" height="602" version="1.1" viewBox="0 0 1204 602" xml:space="preserve" xmlns="http://www.w3.org/2000/svg" xmlns:cc="http://creativecommons.org/ns#" xmlns:dc="http://purl.org/dc/elements/1.1/" xmlns:rdf="http://www.w3.org/1999/02/22-rdf-syntax-ns#"><metadata><rdf:RDF><cc:Work rdf:about=""><dc:format>image/svg+xml</dc:format><dc:type rdf:resource="http://purl.org/dc/dcmitype/StillImage"/></cc:Work></rdf:RDF></metadata><g transform="matrix(1.3333 0 0 -1.3333 0 600.99)"><g><path d="m450.75 225c0-124.26-100.73-225-225-225s-225 100.74-225 225c0 124.27 100.73 225 225 225s225-100.73 225-225z" fill="#fff"/><path d="m901.5 225c0-124.26-100.73-225-225-225s-225 100.73-225 225c0 124.27 100.73 225 225 225s225-100.73 225-225z" fill="#666"/><path d="m225.75 442.5c-119.77 0-217.5-97.734-217.5-217.5 0-119.76 97.734-217.5 217.5-217.5 119.76 0 217.5 97.739 217.5 217.5 0 119.77-97.738 217.5-217.5 217.5zm0-60.301c87.176 0 157.2-70.019 157.2-157.2 0-87.176-70.023-157.2-157.2-157.2-87.18 0-157.2 70.023-157.2 157.2 0 87.18 70.019 157.2 157.2 157.2z" fill="#c1121c"/><g transform="translate(-267 389.87)"><path d="m379.32-258.63v25l72.704 90.937c2.8 3.571 4.628 6.844 5.484 9.813 0.851 2.976 1.281 5.875 1.281 8.687 0 6.457-2.297 12.469-6.89 18.032-4.594 5.57-10.844 8.359-18.75 8.359-7.231 0-13.418-2.402-18.563-7.203-5.148-4.805-8.016-11.371-8.609-19.703h-26.657c0.082 15.051 5.223 27.742 15.422 38.078 10.207 10.332 22.328 15.5 36.36 15.5 15.476 0 28.379-5.211 38.703-15.625 10.332-10.418 15.5-22.984 15.5-37.703 0-12.586-3.699-23.465-11.094-32.641l-59.812-75h70.906v-26.531z"/><path d="m579.74-204.09v78.313c0 8.851-2.387 15.765-7.156 20.734-4.762 4.977-11.023 7.469-18.781 7.469-7.844 0-14.133-2.492-18.86-7.469-4.718-4.969-7.078-11.883-7.078-20.734v-78.313c0-8.949 2.36-15.891 7.078-20.828 4.727-4.93 11.016-7.391 18.86-7.391 7.758 0 14.019 2.461 18.781 7.391 4.769 4.937 7.156 11.879 7.156 20.828zm-78.312-1.531v81.359c0 16.946 5.312 30.039 15.937 39.281 10.625 9.239 22.77 13.86 36.438 13.86 13.582 0 25.707-4.621 36.375-13.86 10.664-9.242 16-22.335 16-39.281v-81.359c0-16.949-5.336-30.024-16-39.219-10.668-9.187-22.793-13.781-36.375-13.781-13.668 0-25.813 4.594-36.438 13.781-10.625 9.195-15.937 22.27-15.937 39.219z"/></g></g></g></svg>
