<?xml version="1.0" encoding="UTF-8"?>
<svg width="1804" height="902" version="1.1" viewBox="0 0 1804 902" xml:space="preserve" xmlns="http://www.w3.org/2000/svg" xmlns:cc="http://creativecommons.org/ns#" xmlns:dc="http://purl.org/dc/elements/1.1/" xmlns:rdf="http://www.w3.org/1999/02/22-rdf-syntax-ns#"><metadata><rdf:RDF><cc:Work rdf:about=""><dc:format>image/svg+xml</dc:format><dc:type rdf:resource="http://purl.org/dc/dcmitype/StillImage"/></cc:Work></rdf:RDF></metadata><g fill-rule="evenodd"><path d="m282.01 901c-11.148 0-21.826-4.4238-29.711-12.305l-238.99-238.99c-7.8811-7.8811-12.305-18.563-12.305-29.697v-338c0-11.137 4.4238-21.816 12.305-29.697l238.99-239.01c7.8846-7.8705 18.563-12.294 29.711-12.294h337.99c11.134 0 21.826 4.4238 29.697 12.294l239.01 239.01c7.867 7.8811 12.291 18.56 12.291 29.697v338c0 11.134-4.4238 21.816-12.291 29.697l-239.01 238.99c-7.8705 7.8811-18.563 12.305-29.697 12.305h-337.99" fill="#fff"/><path d="m1183 901c-11.148 0-21.826-4.4238-29.711-12.305l-238.99-238.99c-7.8811-7.8811-12.305-18.563-12.305-29.697v-338c0-11.137 4.4238-21.816 12.305-29.697l238.99-239.01c7.8846-7.8705 18.563-12.294 29.711-12.294h337.99c11.134 0 21.826 4.4238 29.697 12.294l239.01 239.01c7.867 7.8811 12.291 18.56 12.291 29.697v338c0 11.134-4.4238 21.816-12.291 29.697l-239.01 238.99c-7.8705 7.8811-18.563 12.305-29.697 12.305h-337.99" fill="#666"/><path d="m283.25 856-237.24-237.24v-335.51l237.24-237.24h335.51l237.24 237.24v335.51l-237.24 237.24h-335.51" fill="#c1121c"/><path d="m185.15 289.43c41.934 0 75.989 34.306 75.989 76.531v17.039h-44.994v-17.039c0-17.247-13.845-31.204-30.995-31.204-17.151 0-30.996 13.957-30.996 31.204 0 19.228-2.3218 39.799 19.415 48.785l40.161 16.372c28.6 11.644 47.41 39.572 47.41 70.782v34.078c0 44.688-35.736 76.572-78.781 76.572-41.934 0-75.988-34.347-75.988-76.572v-16.998h44.993v16.998c0 41.113 64.783 41.5 64.783 0v-34.078c0-12.658-7.7394-24.178-19.289-28.913l-40.203-16.373c-28.697-11.499-47.493-39.668-47.493-70.781v-19.872c0-42.225 34.006-76.531 75.989-76.531zm343.2 0c41.838 0 75.906 34.306 75.906 76.531v170.02c0 42.273-34.068 76.572-75.906 76.572-41.935 0-75.989-34.299-75.989-76.572v-170.02c0-42.225 34.055-76.531 75.989-76.531zm-250.34 2.8297h151.98v42.494h-53.451v274.84h-44.993v-274.84h-53.535zm371.24 0h73.198c40.388 0 73.198 33.02 73.198 73.698v45.327c0 40.582-32.809 73.614-73.198 73.614h-28.246v124.69h-44.952zm-120.9 42.494c-17.151 0-30.995 13.957-30.995 31.204v170.02c0 17.151 13.845 31.12 30.995 31.12 16.909 0 30.787-13.97 30.787-31.12v-170.02c0-17.247-13.878-31.204-30.787-31.204zm165.85 0v107.78h28.246c17.006 0 30.87-13.949 30.87-31.245v-45.327c0-17.247-13.865-31.204-30.87-31.204z" color="#000000" color-rendering="auto" dominant-baseline="auto" fill="#fff" image-rendering="auto" shape-rendering="auto" solid-color="#000000" stop-color="#000000" style="font-feature-settings:normal;font-variant-alternates:normal;font-variant-caps:normal;font-variant-east-asian:normal;font-variant-ligatures:normal;font-variant-numeric:normal;font-variant-position:normal;font-variation-settings:normal;inline-size:0;isolation:auto;mix-blend-mode:normal;paint-order:stroke fill markers;shape-margin:0;shape-padding:0;text-decoration-color:#000000;text-decoration-line:none;text-decoration-style:solid;text-indent:0;text-orientation:mixed;text-transform:none;white-space:normal"/></g></svg>
