<?xml version="1.0" encoding="UTF-8"?>
<svg width="1204" height="602" version="1.1" viewBox="0 0 1204 602" xml:space="preserve" xmlns="http://www.w3.org/2000/svg" xmlns:cc="http://creativecommons.org/ns#" xmlns:dc="http://purl.org/dc/elements/1.1/" xmlns:rdf="http://www.w3.org/1999/02/22-rdf-syntax-ns#"><metadata><rdf:RDF><cc:Work rdf:about=""><dc:format>image/svg+xml</dc:format><dc:type rdf:resource="http://purl.org/dc/dcmitype/StillImage"/></cc:Work></rdf:RDF></metadata><g transform="matrix(1.3333 0 0 -1.3333 0 600.99)"><g><path d="m450.75 225c0-124.26-100.73-225-225-225s-225 100.74-225 225c0 124.27 100.73 225 225 225s225-100.73 225-225z" fill="#fff"/><path d="m901.5 225c0-124.26-100.73-225-225-225s-225 100.73-225 225c0 124.27 100.73 225 225 225s225-100.73 225-225z" fill="#666"/><path d="m225.75 442.5c-119.77 0-217.5-97.734-217.5-217.5 0-119.76 97.734-217.5 217.5-217.5 119.76 0 217.5 97.739 217.5 217.5 0 119.77-97.738 217.5-217.5 217.5zm0-60.301c87.176 0 157.2-70.019 157.2-157.2 0-87.176-70.023-157.2-157.2-157.2-87.18 0-157.2 70.023-157.2 157.2 0 87.18 70.019 157.2 157.2 157.2z" fill="#c1121c"/><g transform="matrix(1 0 0 -1 3.508 450.37)"><path d="m103.2 291.57v-25.125l62.25-133.16h29.719l-62.891 133.16h48.469v-53.578h26.656v53.578h14.938v25.125h-14.938v27.547h-26.656v-27.547z"/><path d="m314.85 264.59v-78.313c0-8.851-2.387-15.765-7.157-20.734-4.761-4.977-11.023-7.469-18.781-7.469-7.844 0-14.133 2.492-18.859 7.469-4.719 4.969-7.078 11.883-7.078 20.734v78.313c0 8.949 2.359 15.891 7.078 20.828 4.726 4.93 11.015 7.391 18.859 7.391 7.758 0 14.02-2.461 18.781-7.391 4.77-4.937 7.157-11.879 7.157-20.828zm-78.313 1.531v-81.359c0-16.946 5.313-30.039 15.938-39.281 10.625-9.239 22.769-13.86 36.437-13.86 13.582 0 25.707 4.621 36.375 13.86 10.664 9.242 16 22.335 16 39.281v81.359c0 16.949-5.336 30.024-16 39.219-10.668 9.187-22.793 13.781-36.375 13.781-13.668 0-25.812-4.594-36.437-13.781-10.625-9.195-15.938-22.27-15.938-39.219z"/></g></g></g></svg>
