<?xml version="1.0" encoding="UTF-8"?>
<svg width="1204" height="602" version="1.1" viewBox="0 0 1204 602" xml:space="preserve" xmlns="http://www.w3.org/2000/svg" xmlns:cc="http://creativecommons.org/ns#" xmlns:dc="http://purl.org/dc/elements/1.1/" xmlns:rdf="http://www.w3.org/1999/02/22-rdf-syntax-ns#"><metadata><rdf:RDF><cc:Work rdf:about=""><dc:format>image/svg+xml</dc:format><dc:type rdf:resource="http://purl.org/dc/dcmitype/StillImage"/></cc:Work></rdf:RDF></metadata><g transform="matrix(1.25 0 0 -1.25 0 743.62)"><g><g transform="matrix(.70909 0 0 .70909 .51495 143.18)"><path d="m338.86 0.398c7.516 0 15.028 2.867 20.758 8.598 1.879 1.879 3.445 3.953 4.707 6.152l15.246 26.156h0.071l293.1 508.04c0.055 0.098 0.098 0.196 0.153 0.293 1.488 2.395 2.656 5.043 3.425 7.911 4.196 15.656-5.097 31.753-20.758 35.949-2.585 0.695-5.183 1.012-7.738 1h-618.07c-16.215 0-29.356-13.141-29.356-29.356 0-5.304 1.414-10.281 3.879-14.578 0.02-0.031 0.035-0.062 0.055-0.097l304.36-528.41c3.863-6.664 5.653-9.304 9.406-13.058 5.731-5.731 13.243-8.598 20.754-8.598z" fill="#fff"/><path d="m338.86 7.754c7.125-0.051 14.95 3.589 18.782 10.406l309.29 535.89c1.785 3.649 2.535 6.821 2.558 10.45 0 6.496-2.875 12.66-7.847 16.84-4.383 3.394-8.536 5.16-14.122 5.16h-617.91c-3.769 0.035-7.547-0.871-10.976-3.133-6.453-3.899-10.403-10.883-10.411-18.426 0.184-3.894 1.145-8 2.879-10.891l309.11-535.98c0.027-0.047 0.062-0.094 0.089-0.141 0.032-0.046 0.063-0.093 0.094-0.144 1.098-1.754 2.473-3.305 4.039-4.633 3.59-3.109 8.086-4.977 12.825-5.316 0.531-0.047 1.062-0.078 1.589-0.082zm308.66 578.75h1.524-1.555zm-308.34-472.54-235.7 408.54h471.74z" fill="#c1121c"/></g><path d="m721.6 143.46c5.3295 0 10.656 2.033 14.719 6.0967 1.3324 1.3324 2.4428 2.803 3.3377 4.3623l10.811 18.547h0.0503l207.83 360.24c0.039 0.0695 0.0695 0.13899 0.1085 0.20777 1.0551 1.6983 1.8833 3.5759 2.4286 5.6096 2.9753 11.101-3.6142 22.516-14.719 25.491-1.833 0.49281-3.6752 0.71759-5.4869 0.70909h-438.26c-11.498 0-20.816-9.3181-20.816-20.816 0-3.761 1.0026-7.2901 2.7506-10.337 0.0142-0.022 0.0248-0.044 0.039-0.0688l215.82-374.69c2.7392-4.7254 4.0085-6.5974 6.6697-9.2593 4.0638-4.0638 9.3905-6.0967 14.716-6.0967z" fill="#666"/></g></g></svg>
