<?xml version="1.0" encoding="UTF-8"?>
<svg width="1204" height="602" version="1.1" viewBox="0 0 1204 602" xml:space="preserve" xmlns="http://www.w3.org/2000/svg" xmlns:cc="http://creativecommons.org/ns#" xmlns:dc="http://purl.org/dc/elements/1.1/" xmlns:rdf="http://www.w3.org/1999/02/22-rdf-syntax-ns#"><metadata><rdf:RDF><cc:Work rdf:about=""><dc:format>image/svg+xml</dc:format><dc:type rdf:resource="http://purl.org/dc/dcmitype/StillImage"/></cc:Work></rdf:RDF></metadata><g transform="matrix(1.3333 0 0 -1.3333 0 600.99)"><g><path d="m450.75 225c0-124.26-100.73-225-225-225s-225 100.74-225 225c0 124.27 100.73 225 225 225s225-100.73 225-225z" fill="#fff"/><path d="m901.5 225c0-124.26-100.73-225-225-225s-225 100.73-225 225c0 124.27 100.73 225 225 225s225-100.73 225-225z" fill="#666"/><path d="m225.75 442.5c-119.77 0-217.5-97.734-217.5-217.5 0-119.76 97.734-217.5 217.5-217.5 119.76 0 217.5 97.739 217.5 217.5 0 119.77-97.738 217.5-217.5 217.5zm0-60.301c87.176 0 157.2-70.019 157.2-157.2 0-87.176-70.023-157.2-157.2-157.2-87.18 0-157.2 70.023-157.2 157.2 0 87.18 70.019 157.2 157.2 157.2z" fill="#c1121c"/><g transform="matrix(1 0 0 -1 -.75 450.69)"><path d="m212.96 219.76-50 100h-29.844l39.281-78.703h-0.515c-4.25 1.617-8.969 2.421-14.156 2.421-11.907 0-22.282-4.117-31.125-12.359-8.93-8.164-13.391-21.348-13.391-39.547 0-21.344 5.656-36.601 16.969-45.781 11.394-9.27 24.066-13.906 38.015-13.906 12.914 0 24.817 5.101 35.703 15.297 10.801 10.211 16.204 24.07 16.204 41.578 0 11.312-2.383 21.648-7.141 31zm-46.297 0c7.395 0 13.688-2.461 18.875-7.391 5.188-4.758 7.781-12.457 7.781-23.094 0-20.488-8.886-30.734-26.656-30.734-6.211 0-12.203 2.34-17.984 7.016-5.875 4.761-8.813 12.668-8.813 23.718 0 10.543 2.594 18.243 7.781 23.094 5.102 4.93 11.442 7.391 19.016 7.391z"/><path d="m313.35 264.59v-78.313c0-8.851-2.387-15.765-7.157-20.734-4.761-4.977-11.023-7.469-18.781-7.469-7.844 0-14.133 2.492-18.859 7.469-4.719 4.969-7.078 11.883-7.078 20.734v78.313c0 8.949 2.359 15.891 7.078 20.828 4.726 4.93 11.015 7.391 18.859 7.391 7.758 0 14.02-2.461 18.781-7.391 4.77-4.937 7.157-11.879 7.157-20.828zm-78.313 1.531v-81.359c0-16.946 5.313-30.039 15.938-39.281 10.625-9.239 22.769-13.86 36.437-13.86 13.582 0 25.707 4.621 36.375 13.86 10.664 9.242 16 22.335 16 39.281v81.359c0 16.949-5.336 30.024-16 39.219-10.668 9.187-22.793 13.781-36.375 13.781-13.668 0-25.812-4.594-36.437-13.781-10.625-9.195-15.938-22.27-15.938-39.219z"/></g></g></g></svg>
