<?xml version="1.0" encoding="UTF-8"?>
<svg width="1204" height="602" version="1.1" viewBox="0 0 1204 602" xml:space="preserve" xmlns="http://www.w3.org/2000/svg" xmlns:cc="http://creativecommons.org/ns#" xmlns:dc="http://purl.org/dc/elements/1.1/" xmlns:rdf="http://www.w3.org/1999/02/22-rdf-syntax-ns#"><metadata><rdf:RDF><cc:Work rdf:about=""><dc:format>image/svg+xml</dc:format><dc:type rdf:resource="http://purl.org/dc/dcmitype/StillImage"/></cc:Work></rdf:RDF></metadata><g transform="matrix(1.3333 0 0 -1.3333 0 600.99)"><g><g><path d="m450.75 225c0-124.26-100.73-225-225-225s-225 100.74-225 225c0 124.27 100.73 225 225 225s225-100.73 225-225z" fill="#fff"/><path d="m901.5 225c0-124.26-100.73-225-225-225s-225 100.73-225 225c0 124.27 100.73 225 225 225s225-100.73 225-225z" fill="#666"/><path d="m225.75 442.5c-119.77 0-217.5-97.734-217.5-217.5 0-119.76 97.734-217.5 217.5-217.5 119.76 0 217.5 97.739 217.5 217.5 0 119.77-97.738 217.5-217.5 217.5zm0-60.301c87.176 0 157.2-70.019 157.2-157.2 0-87.176-70.023-157.2-157.2-157.2-87.18 0-157.2 70.023-157.2 157.2 0 87.18 70.019 157.2 157.2 157.2z" fill="#c1121c"/></g><g transform="matrix(.75 0 0 -.75 2.5239 448.64)"><path d="m178.51 212.56-35.221 25.898v-37.293l35.221-25.898h35.221v245.86h-35.221z"/><path d="m280.37 212.56-35.221 25.898v-37.293l35.221-25.898h35.221v245.86h-35.221z"/><path d="m347.01 226.02q0-12.431 4.1436-22.099 4.489-9.6685 11.74-16.575 7.2514-6.9061 16.575-10.359 9.6685-3.7983 20.028-3.7983t19.682 3.7983q9.6685 3.453 16.92 10.359 7.2514 6.9061 11.395 16.575 4.489 9.6685 4.489 22.099v144.34q0 12.431-4.489 22.099-4.1436 9.6685-11.395 16.575-7.2514 6.9061-16.92 10.704-9.3232 3.453-19.682 3.453t-20.028-3.453q-9.3232-3.7983-16.575-10.704-7.2514-6.9061-11.74-16.575-4.1436-9.6685-4.1436-22.099zm35.221 144.34q0 7.5967 4.8342 12.776 4.8343 4.8343 12.431 4.8343 7.5967 0 12.431-4.8343 4.8342-5.1796 4.8342-12.776v-144.34q0-7.5967-4.8342-12.431-4.8342-5.1796-12.431-5.1796-7.5967 0-12.431 5.1796-4.8342 4.8342-4.8342 12.431z"/></g></g></g></svg>
