<?xml version="1.0" encoding="UTF-8"?>
<svg width="1204" height="602" version="1.1" viewBox="0 0 1204 602" xml:space="preserve" xmlns="http://www.w3.org/2000/svg" xmlns:cc="http://creativecommons.org/ns#" xmlns:dc="http://purl.org/dc/elements/1.1/" xmlns:rdf="http://www.w3.org/1999/02/22-rdf-syntax-ns#"><metadata><rdf:RDF><cc:Work rdf:about=""><dc:format>image/svg+xml</dc:format><dc:type rdf:resource="http://purl.org/dc/dcmitype/StillImage"/></cc:Work></rdf:RDF></metadata><g transform="matrix(1.25 0 0 -1.25 0 901)"><g><path d="m631.47 240c-5.9455 0-11.641 2.3594-15.846 6.5626l-127.46 127.46c-4.2033 4.2032-6.5626 9.9004-6.5626 15.838v180.27c0 5.9399 2.3594 11.635 6.5626 15.838l127.46 127.47c4.2051 4.1976 9.9004 6.557 15.846 6.557h180.26c5.938 0 11.641-2.3594 15.838-6.557l127.47-127.47c4.1957-4.2032 6.5551-9.8985 6.5551-15.838v-180.27c0-5.938-2.3594-11.635-6.5551-15.838l-127.47-127.46c-4.1976-4.2032-9.9004-6.5626-15.838-6.5626h-180.26" fill="#666" fill-rule="evenodd"/><g transform="translate(.4 -.40001)"><path d="m150.27 240.4c-5.9455 0-11.641 2.3594-15.846 6.5626l-127.46 127.46c-4.2033 4.2032-6.5626 9.9004-6.5626 15.838v180.27c0 5.9399 2.3594 11.635 6.5626 15.838l127.46 127.47c4.2051 4.1976 9.9004 6.557 15.846 6.557h180.26c5.938 0 11.641-2.3594 15.838-6.557l127.47-127.47c4.1957-4.2032 6.5551-9.8985 6.5551-15.838v-180.27c0-5.938-2.3594-11.635-6.5551-15.838l-127.47-127.46c-4.1976-4.2032-9.9004-6.5626-15.838-6.5626h-180.26" fill="#fff" fill-rule="evenodd"/><path d="m150.93 264.4-126.53 126.53v178.94l126.53 126.53h178.94l126.53-126.53v-178.94l-126.53-126.53h-178.94" fill="#c1121c" fill-rule="evenodd"/><path d="m95.797 559.79c-18.833-3.2e-4 -34.1-15.268-34.1-34.101v-23.189c3.09e-4 -18.833 15.267-34.099 34.1-34.099 5.576-2.9e-4 10.095-4.5202 10.096-10.096v-23.189c2e-4 -5.576-4.5198-10.096-10.096-10.097-5.5764-2e-4 -10.097 4.5204-10.097 10.097v11.594h-24.003l-0.0011-11.594c-2.66e-4 -18.834 15.267-34.101 34.101-34.101 18.833 3.1e-4 34.1 15.268 34.1 34.101v23.189c-3.1e-4 18.833-15.267 34.1-34.1 34.1-5.576 3e-4 -10.095 4.5192-10.096 10.095v23.189c-2e-4 5.576 4.5198 10.096 10.096 10.097 5.5764 1.9e-4 10.097-4.5204 10.097-10.097l-1e-3 -11.594h24.004l1e-3 11.594c2.7e-4 18.834-15.267 34.101-34.101 34.101zm186.13 0c-18.833 0-34.1-15.267-34.1-34.1v-90.573c0-18.833 15.267-34.101 34.1-34.101s34.101 15.268 34.101 34.101v90.573c0 18.833-15.268 34.1-34.101 34.1zm68.988-0.53542v-157.7h24.003l3e-5 66.849h10.097c18.833 0 34.101 15.268 34.101 34.101l-4e-5 22.652c-2e-5 18.833-15.268 34.1-34.101 34.1zm-196.15 0v-24.004h22.099v-133.7h24.004v133.7h22.099v24.004zm127.16-23.469c5.5762 0 10.097-4.5197 10.097-10.096v-90.573c0-5.5762-4.5207-10.097-10.097-10.097-5.5762 0-10.097 4.5207-10.097 10.097v90.573c0 5.5762 4.5207 10.096 10.097 10.096zm103.09-0.53542c5.5762 0 10.097-4.5197 10.097-10.096l3e-5 -22.652c1e-5 -5.5762-4.5207-10.097-10.097-10.097h-10.097l-6e-5 42.845z" fill="#fff" stroke-linecap="round" stroke-linejoin="round" stroke-width="9.2126"/></g></g></g></svg>
