<?xml version="1.0" encoding="UTF-8"?>
<svg width="1264" height="632" version="1.1" viewBox="0 0 1264 632" xml:space="preserve" xmlns="http://www.w3.org/2000/svg" xmlns:cc="http://creativecommons.org/ns#" xmlns:dc="http://purl.org/dc/elements/1.1/" xmlns:rdf="http://www.w3.org/1999/02/22-rdf-syntax-ns#"><metadata><rdf:RDF><cc:Work rdf:about=""><dc:format>image/svg+xml</dc:format><dc:type rdf:resource="http://purl.org/dc/dcmitype/StillImage"/></cc:Work></rdf:RDF></metadata><path d="m316 592.46c6.9949 0 13.986-2.6682 19.319-8.0019 1.7487-1.7487 3.2062-3.679 4.3807-5.7255l14.189-24.343h0.0661l272.78-472.82c0.0512-0.09121 0.0912-0.18241 0.1424-0.27269 1.3848-2.229 2.4719-4.6934 3.1876-7.3626 3.9051-14.571-4.7436-29.552-19.319-33.457-2.4058-0.64682-4.8237-0.94184-7.2015-0.93067h-575.22c-15.091 0-27.321 12.23-27.321 27.321 0 4.9363 1.316 9.5682 3.6101 13.567 0.018613 0.02885 0.032573 0.0577 0.051187 0.09027l283.26 491.78c3.5952 6.202 5.2611 8.659 8.7539 12.153 5.3337 5.3337 12.325 8.0019 19.315 8.0019z" fill="#fff" stroke-width=".93067"/><path d="m316 585.61c6.631 0.0475 13.914-3.3402 17.48-9.6846l287.85-498.74c1.6613-3.396 2.3593-6.3481 2.3807-9.7255 0-6.0457-2.6757-11.782-7.303-15.673-4.0791-3.1587-7.9442-4.8023-13.143-4.8023h-575.07c-3.5077-0.03257-7.0238 0.81062-10.215 2.9158-6.0056 3.6287-9.6818 10.129-9.6892 17.149 0.17124 3.624 1.0656 7.4454 2.6794 10.136l287.68 498.82c0.0251 0.0437 0.0577 0.0875 0.0828 0.13122 0.0298 0.0428 0.0586 0.0866 0.0875 0.13402 1.0219 1.6324 2.3016 3.0759 3.759 4.3118 3.3411 2.8935 7.5254 4.632 11.936 4.9475 0.49419 0.0437 0.98838 0.0726 1.4788 0.0763zm287.26-538.63h1.4184-1.4472zm-286.96 439.78-219.36-380.22h439.04z" fill="#c1121c" stroke-width=".93067"/><path d="m947 592.45c6.995 0 13.986-2.6683 19.319-8.002 1.7488-1.7488 3.2062-3.679 4.3808-5.7256l14.19-24.343h0.0661l272.78-472.82c0.052-0.09121 0.091-0.18243 0.1424-0.2727 1.3849-2.229 2.472-4.6934 3.1876-7.3627 3.9051-14.57-4.7437-29.552-19.319-33.457-2.4057-0.64682-4.8237-0.94184-7.2015-0.93069h-575.22c-15.091 0-27.321 12.23-27.321 27.321 0 4.9364 1.3159 9.5683 3.6102 13.567 0.0187 0.02887 0.0326 0.05775 0.0512 0.0903l283.27 491.78c3.5952 6.2021 5.2612 8.6592 8.754 12.153 5.3338 5.3338 12.325 8.002 19.315 8.002z" fill="#666" stroke-width="1.3125"/></svg>
