<?xml version="1.0" encoding="UTF-8"?>
<svg width="1204" height="602" version="1.1" viewBox="0 0 1204 602" xml:space="preserve" xmlns="http://www.w3.org/2000/svg" xmlns:cc="http://creativecommons.org/ns#" xmlns:dc="http://purl.org/dc/elements/1.1/" xmlns:rdf="http://www.w3.org/1999/02/22-rdf-syntax-ns#"><metadata><rdf:RDF><cc:Work rdf:about=""><dc:format>image/svg+xml</dc:format><dc:type rdf:resource="http://purl.org/dc/dcmitype/StillImage"/></cc:Work></rdf:RDF></metadata><g transform="matrix(1.3333 0 0 -1.3333 0 600.99)"><g><path d="m450.75 225c0-124.26-100.73-225-225-225s-225 100.74-225 225c0 124.27 100.73 225 225 225s225-100.73 225-225z" fill="#fff"/><path d="m901.5 225c0-124.26-100.73-225-225-225s-225 100.73-225 225c0 124.27 100.73 225 225 225s225-100.73 225-225z" fill="#666"/><path d="m225.75 442.5c-119.77 0-217.5-97.734-217.5-217.5 0-119.76 97.734-217.5 217.5-217.5 119.76 0 217.5 97.739 217.5 217.5 0 119.77-97.738 217.5-217.5 217.5zm0-60.301c87.176 0 157.2-70.019 157.2-157.2 0-87.176-70.023-157.2-157.2-157.2-87.18 0-157.2 70.023-157.2 157.2 0 87.18 70.019 157.2 157.2 157.2z" fill="#c1121c"/><g transform="translate(.375 -.37475)"><path d="m127.03 289.6-26.414-19.422v27.969l26.414 19.422h26.414v-184.39h-26.414z"/><path d="m173.06 279.5c0 6.219 1.036 11.742 3.106 16.574 2.246 4.836 5.18 8.981 8.805 12.434 3.629 3.453 7.769 6.043 12.433 7.77 4.832 1.898 9.84 2.847 15.02 2.847 5.179 0 10.101-0.949 14.762-2.847 4.835-1.727 9.066-4.317 12.691-7.77s6.473-7.598 8.547-12.434c2.242-4.832 3.363-10.355 3.363-16.574v-108.25c0-6.219-1.121-11.742-3.363-16.574-2.074-4.836-4.922-8.98-8.547-12.434-3.625-3.453-7.856-6.128-12.691-8.027-4.661-1.726-9.583-2.59-14.762-2.59-5.18 0-10.188 0.864-15.02 2.59-4.664 1.899-8.804 4.574-12.433 8.027-3.625 3.454-6.559 7.598-8.805 12.434-2.07 4.832-3.106 10.355-3.106 16.574zm26.415-108.25c0-3.801 1.211-6.992 3.625-9.582 2.418-2.418 5.527-3.629 9.324-3.629s6.906 1.211 9.324 3.629c2.418 2.59 3.625 5.781 3.625 9.582v108.25c0 3.801-1.207 6.906-3.625 9.324-2.418 2.59-5.527 3.887-9.324 3.887s-6.906-1.297-9.324-3.887c-2.414-2.418-3.625-5.523-3.625-9.324z"/><path d="m271.41 279.5c0 6.219 1.035 11.742 3.106 16.574 2.246 4.836 5.179 8.981 8.804 12.434 3.629 3.453 7.77 6.043 12.434 7.77 4.832 1.898 9.84 2.847 15.02 2.847 5.179 0 10.101-0.949 14.761-2.847 4.836-1.727 9.067-4.317 12.692-7.77s6.472-7.598 8.547-12.434c2.242-4.832 3.363-10.355 3.363-16.574v-108.25c0-6.219-1.121-11.742-3.363-16.574-2.075-4.836-4.922-8.98-8.547-12.434-3.625-3.453-7.856-6.128-12.692-8.027-4.66-1.726-9.582-2.59-14.761-2.59-5.18 0-10.188 0.864-15.02 2.59-4.664 1.899-8.805 4.574-12.434 8.027-3.625 3.454-6.558 7.598-8.804 12.434-2.071 4.832-3.106 10.355-3.106 16.574zm26.414-108.25c0-3.801 1.211-6.992 3.625-9.582 2.418-2.418 5.528-3.629 9.325-3.629 3.796 0 6.906 1.211 9.324 3.629 2.418 2.59 3.625 5.781 3.625 9.582v108.25c0 3.801-1.207 6.906-3.625 9.324-2.418 2.59-5.528 3.887-9.324 3.887-3.797 0-6.907-1.297-9.325-3.887-2.414-2.418-3.625-5.523-3.625-9.324z"/></g></g></g></svg>
