<?xml version="1.0" encoding="UTF-8"?>
<!-- Created with Inkscape (http://www.inkscape.org/) -->
<svg width="1204" height="602" version="1.1" viewBox="0 0 1204 602" xml:space="preserve" xmlns="http://www.w3.org/2000/svg"><g transform="matrix(1.25 0 0 -1.25 .63366 601)"><path d="m471.81 258.05c10.321-10.313 10.547-24.094 0.516-34.121-72.055-72.141-144.11-144.28-216.17-216.42-16.297-16.278-32.402 0.054-32.402 0.054l-217.18 217.17c-9.98 9.977-6.684 24.672 0.219 31.957l216.23 216.08c11.098 11.086 26.364 7.176 33.473 0.075z" fill="#fff"/><path d="m250.38 467.74 216.9-216.89c10.629-10.582 0.203-20.539 0.203-20.539l-217.27-217.12s-9.965-10.421-20.551 0.2l-217.04 216.75c-10.598 10.644-4e-3 20.691-4e-3 20.691 72.328 72.355 144.69 144.62 217.06 216.91 0 0 10.058 10.586 20.707-4e-3zm-6.199-6.195c-4.172 4.199-8.371-0.094-8.371-0.094-72.321-72.222-144.61-144.48-216.9-216.75 0 0-4.297-4.195-0.094-8.363l217.02-216.73c4.492-4.34 8.211 0.032 8.211 0.032 72.445 72.16 144.71 144.5 216.98 216.83 0 0 4.371 3.718 0.032 8.203z"/><path d="m240 107.65 132.99 132.9-132.99 132.9-132.99-132.9z" fill="#f7ba0b"/><path d="m240 103.5-2.078 2.078-135.07 134.97 137.15 137.06 137.15-137.06zm0 8.305 128.84 128.75-128.84 128.75-128.84-128.75z"/></g><path d="m1191.4 278.43c12.901 12.891 13.184 30.118 0.645 42.651-90.069 90.176-180.14 180.35-270.21 270.53-20.371 20.348-40.502-0.0675-40.502-0.0675l-271.47-271.46c-12.475-12.471-8.355-30.84 0.2737-39.946l270.29-270.1c13.872-13.858 32.955-8.97 41.841-0.0937z" fill="#666"/></svg>
