<?xml version="1.0" encoding="UTF-8"?>
<svg width="1204" height="602" version="1.1" viewBox="0 0 1204 602" xml:space="preserve" xmlns="http://www.w3.org/2000/svg" xmlns:cc="http://creativecommons.org/ns#" xmlns:dc="http://purl.org/dc/elements/1.1/" xmlns:rdf="http://www.w3.org/1999/02/22-rdf-syntax-ns#"><metadata><rdf:RDF><cc:Work rdf:about=""><dc:format>image/svg+xml</dc:format><dc:type rdf:resource="http://purl.org/dc/dcmitype/StillImage"/></cc:Work></rdf:RDF></metadata><g transform="matrix(1.3333 0 0 -1.3333 0 600.99)"><g><path d="m450.75 225c0-124.26-100.73-225-225-225s-225 100.74-225 225c0 124.27 100.73 225 225 225s225-100.73 225-225z" fill="#fff"/><path d="m901.5 225c0-124.26-100.73-225-225-225s-225 100.73-225 225c0 124.27 100.73 225 225 225s225-100.73 225-225z" fill="#666"/><path d="m225.75 442.5c-119.77 0-217.5-97.734-217.5-217.5 0-119.76 97.734-217.5 217.5-217.5 119.76 0 217.5 97.739 217.5 217.5 0 119.77-97.738 217.5-217.5 217.5zm0-60.301c87.176 0 157.2-70.019 157.2-157.2 0-87.176-70.023-157.2-157.2-157.2-87.18 0-157.2 70.023-157.2 157.2 0 87.18 70.019 157.2 157.2 157.2z" fill="#c1121c"/><g transform="matrix(.9375 0 0 .9375 .3764 -.37829)"><path d="m123.48 233.09c-5.055-10.11-7.582-21.254-7.582-33.426 0-9.176 1.496-17.508 4.492-25 3.183-7.488 7.398-13.949 12.64-19.383 5.434-5.429 11.426-9.551 17.981-12.359 6.742-2.809 13.574-4.211 20.504-4.211 7.867 0 15.261 1.215 22.191 3.652 6.93 2.434 13.203 6.274 18.82 11.516 5.618 5.242 10.02 11.891 13.204 19.941 3.183 8.243 4.773 17.887 4.773 28.934 0 18.351-4.586 32.211-13.762 41.574-8.992 9.363-20.32 14.043-33.992 14.043-5.805 0-10.859-0.84-15.168-2.527h-0.558l42.132 84.551h-32.023zm49.722 0c8.426 0 15.262-2.809 20.504-8.426 5.43-5.617 8.145-13.762 8.145-24.437 0-11.047-2.903-19.289-8.707-24.719-5.618-5.43-12.266-8.145-19.942-8.145-8.992 0-16.011 2.715-21.07 8.145-5.055 5.617-7.582 13.855-7.582 24.719 0 10.675 2.621 18.82 7.863 24.437 5.43 5.617 12.36 8.426 20.789 8.426z"/><path d="m336.25 197.98c0-9.55-2.527-17.042-7.586-22.472-5.055-5.43-11.891-8.145-20.504-8.145s-15.449 2.715-20.504 8.145c-5.058 5.43-7.586 12.922-7.586 22.472v84.833c0 9.546 2.528 17.039 7.586 22.468 5.055 5.434 11.891 8.149 20.504 8.149s15.449-2.715 20.504-8.149c5.059-5.429 7.586-12.922 7.586-22.468zm-84.832-1.687c0-8.988 1.5-17.039 4.496-24.156 3.184-7.117 7.395-13.203 12.641-18.258 5.429-5.059 11.515-8.895 18.258-11.516 6.742-2.437 13.855-3.652 21.347-3.652s14.606 1.215 21.348 3.652c6.93 2.621 13.015 6.364 18.258 11.235 5.246 5.054 9.363 11.14 12.359 18.257 3.184 7.305 4.777 15.45 4.777 24.438v88.203c0 8.988-1.5 17.043-4.496 24.156-2.996 7.118-7.207 13.203-12.64 18.258-5.43 5.059-11.516 8.805-18.258 11.238-6.742 2.622-13.856 3.934-21.348 3.934s-14.699-1.312-21.629-3.934c-6.742-2.433-12.734-6.179-17.976-11.238-5.246-4.867-9.457-10.953-12.641-18.258-2.996-7.113-4.496-15.168-4.496-24.156z"/></g></g></g></svg>
