<?xml version="1.0" encoding="UTF-8"?>
<svg width="1204" height="602" version="1.1" viewBox="0 0 1204 602" xml:space="preserve" xmlns="http://www.w3.org/2000/svg" xmlns:cc="http://creativecommons.org/ns#" xmlns:dc="http://purl.org/dc/elements/1.1/" xmlns:rdf="http://www.w3.org/1999/02/22-rdf-syntax-ns#"><metadata><rdf:RDF><cc:Work rdf:about=""><dc:format>image/svg+xml</dc:format><dc:type rdf:resource="http://purl.org/dc/dcmitype/StillImage"/></cc:Work></rdf:RDF></metadata><g transform="matrix(1.3333 0 0 -1.3333 0 600.99)"><g><path d="m450.75 225c0-124.26-100.73-225-225-225s-225 100.74-225 225c0 124.27 100.73 225 225 225s225-100.73 225-225z" fill="#fff"/><path d="m901.5 225c0-124.26-100.73-225-225-225s-225 100.73-225 225c0 124.27 100.73 225 225 225s225-100.73 225-225z" fill="#666"/><path d="m225.75 442.5c-119.77 0-217.5-97.734-217.5-217.5 0-119.76 97.734-217.5 217.5-217.5 119.76 0 217.5 97.739 217.5 217.5 0 119.77-97.738 217.5-217.5 217.5zm0-60.301c87.176 0 157.2-70.019 157.2-157.2 0-87.176-70.023-157.2-157.2-157.2-87.18 0-157.2 70.023-157.2 157.2 0 87.18 70.019 157.2 157.2 157.2z" fill="#c1121c"/><g transform="matrix(1 0 0 -1 .375 450.37)"><path d="m152.06 234.31v-23.469h9.187c8.844 0 15.832-2.485 20.969-7.453 5.144-4.977 7.719-11.297 7.719-18.953 0-7.571-2.68-13.946-8.032-19.125-5.355-5.188-11.73-7.782-19.125-7.782-5.617 0-10.933 1.871-15.953 5.61-5.011 3.742-8.242 9.351-9.687 16.828h-26.656c1.019-13.094 6.503-24.551 16.453-34.375 9.945-9.82 21.55-14.735 34.812-14.735 16.582 0 29.867 5.465 39.86 16.391 10 10.93 15 23.152 15 36.672 0 7.148-1.407 14.102-4.219 20.859-2.805 6.762-8.031 12.606-15.688 17.532 7.821 5.023 13.43 11.187 16.828 18.5 3.407 7.312 5.11 14.711 5.11 22.187 0 17.356-5.445 31.18-16.328 41.469-10.887 10.281-24.235 15.422-40.047 15.422-12.586 0-23.918-4.055-34-12.172-10.074-8.125-16.34-19.969-18.797-35.531h26.656c2.457 6.375 5.77 11.5 9.938 15.375 4.164 3.867 10.078 5.796 17.734 5.796 7.395 0 13.941-2.613 19.641-7.843 5.695-5.227 8.547-12.43 8.547-21.61 0-9.269-2.829-16.519-8.485-21.75-5.656-5.226-12.398-7.843-20.219-7.843z"/><path d="m314.85 263.82v-78.312c0-8.852-2.387-15.766-7.157-20.735-4.761-4.976-11.023-7.468-18.781-7.468-7.844 0-14.133 2.492-18.859 7.468-4.719 4.969-7.078 11.883-7.078 20.735v78.312c0 8.949 2.359 15.891 7.078 20.828 4.726 4.93 11.015 7.391 18.859 7.391 7.758 0 14.02-2.461 18.781-7.391 4.77-4.937 7.157-11.879 7.157-20.828zm-78.313 1.531v-81.359c0-16.945 5.313-30.039 15.938-39.281 10.625-9.238 22.769-13.86 36.437-13.86 13.582 0 25.707 4.622 36.375 13.86 10.664 9.242 16 22.336 16 39.281v81.359c0 16.95-5.336 30.024-16 39.219-10.668 9.188-22.793 13.781-36.375 13.781-13.668 0-25.812-4.593-36.437-13.781-10.625-9.195-15.938-22.269-15.938-39.219z"/></g></g></g></svg>
