<?xml version="1.0" encoding="UTF-8"?>
<svg width="1204" height="602" version="1.1" viewBox="0 0 1204 602" xml:space="preserve" xmlns="http://www.w3.org/2000/svg" xmlns:cc="http://creativecommons.org/ns#" xmlns:dc="http://purl.org/dc/elements/1.1/" xmlns:rdf="http://www.w3.org/1999/02/22-rdf-syntax-ns#"><metadata><rdf:RDF><cc:Work rdf:about=""><dc:format>image/svg+xml</dc:format><dc:type rdf:resource="http://purl.org/dc/dcmitype/StillImage"/></cc:Work></rdf:RDF></metadata><g transform="matrix(1.3333 0 0 -1.3333 0 600.99)"><g><path d="m450.75 225c0-124.26-100.73-225-225-225s-225 100.74-225 225c0 124.27 100.73 225 225 225s225-100.73 225-225z" fill="#fff"/><path d="m901.5 225c0-124.26-100.73-225-225-225s-225 100.73-225 225c0 124.27 100.73 225 225 225s225-100.73 225-225z" fill="#666"/><path d="m225.75 442.5c-119.77 0-217.5-97.734-217.5-217.5 0-119.76 97.734-217.5 217.5-217.5 119.76 0 217.5 97.739 217.5 217.5 0 119.77-97.738 217.5-217.5 217.5zm0-60.301c87.176 0 157.2-70.019 157.2-157.2 0-87.176-70.023-157.2-157.2-157.2-87.18 0-157.2 70.023-157.2 157.2 0 87.18 70.019 157.2 157.2 157.2z" fill="#c1121c"/><g transform="matrix(.75 0 0 -.75 .375 450.37)"><path d="m169.37 214.86-35.219 25.896v-37.292l35.219-25.896h35.219v245.85h-35.219z"/><path d="m230.75 390.28 63.537-119.82c3.2187-5.9853 5.0627-11.167 5.52-15.537 0.464-4.604 0.69333-10.244 0.69333-16.921 0-2.9947-0.11466-6.0987-0.344-9.3227-0.22933-3.4533-0.92133-6.448-2.0733-8.98-0.92133-2.5307-2.5307-4.604-4.832-6.2133-2.3027-1.844-5.6413-2.7653-10.016-2.7653-5.292 0-9.552 1.5-12.776 4.4893-2.9947 2.9947-4.4893 7.3693-4.4893 13.125v20.025h-35.22v-19.339c0-7.364 1.3813-14.271 4.1413-20.719 2.7653-6.4427 6.448-12.083 11.052-16.916 4.8333-4.8333 10.473-8.636 16.917-11.396 6.4467-2.9947 13.353-4.4893 20.719-4.4893 9.208 0 17.036 1.724 23.484 5.1773 6.672 3.224 12.083 7.7133 16.229 13.468 4.3693 5.756 7.4787 12.317 9.3227 19.683 2.0733 7.364 3.104 15.192 3.104 23.479 0 5.9893-0.11467 11.052-0.344 15.199-0.22934 3.9107-0.68667 7.708-1.38 11.391-0.692 3.6867-1.844 7.3693-3.4533 11.052-1.6093 3.6813-3.796 8.172-6.5627 13.468l-51.791 99.792h63.531v35.219h-104.97z"/><path d="m361.87 228.33c0-8.292 1.38-15.656 4.1413-22.099 2.9947-6.448 6.9053-11.975 11.739-16.579 4.8387-4.604 10.36-8.0573 16.579-10.36 6.4427-2.5307 13.12-3.796 20.027-3.796 6.9053 0 13.468 1.2653 19.681 3.796 6.448 2.3027 12.089 5.756 16.923 10.36s8.6293 10.131 11.396 16.579c2.9893 6.4427 4.484 13.807 4.484 22.099v144.33c0 8.292-1.4947 15.656-4.484 22.099-2.7667 6.448-6.5627 11.973-11.396 16.579-4.8333 4.604-10.475 8.1707-16.923 10.703-6.2133 2.3013-12.776 3.4533-19.681 3.4533-6.9067 0-13.584-1.152-20.027-3.4533-6.2187-2.532-11.74-6.0987-16.579-10.703-4.8333-4.6053-8.744-10.131-11.739-16.579-2.7613-6.4427-4.1413-13.807-4.1413-22.099zm35.219 144.33c0 5.068 1.6147 9.3227 4.8333 12.776 3.224 3.224 7.3707 4.8387 12.433 4.8387 5.0613 0 9.208-1.6147 12.432-4.8387 3.224-3.4533 4.8333-7.708 4.8333-12.776v-144.33c0-5.068-1.6093-9.208-4.8333-12.432-3.224-3.4533-7.3707-5.1827-12.432-5.1827-5.0627 0-9.2093 1.7293-12.433 5.1827-3.2187 3.224-4.8333 7.364-4.8333 12.432z"/></g></g></g></svg>
