<?xml version="1.0" encoding="UTF-8" standalone="no"?>
<svg
   version="1.0"
   width="55cm"
   height="55cm"
   viewBox="-350 -300 2078.7402 2078.7402"
   id="svg3"
   sodipodi:docname="Fahrbahnmarkierung_Pfeil_LR.svg"
   inkscape:version="1.3.2 (091e20e, 2023-11-25)"
   xmlns:inkscape="http://www.inkscape.org/namespaces/inkscape"
   xmlns:sodipodi="http://sodipodi.sourceforge.net/DTD/sodipodi-0.dtd"
   xmlns="http://www.w3.org/2000/svg"
   xmlns:svg="http://www.w3.org/2000/svg">
  <sodipodi:namedview
     id="namedview3"
     pagecolor="#ffffff"
     bordercolor="#666666"
     borderopacity="1.0"
     inkscape:showpageshadow="2"
     inkscape:pageopacity="0.0"
     inkscape:pagecheckerboard="0"
     inkscape:deskcolor="#d1d1d1"
     inkscape:zoom="0.33381333"
     inkscape:cx="1837.8535"
     inkscape:cy="459.83784"
     inkscape:window-width="3440"
     inkscape:window-height="1372"
     inkscape:window-x="0"
     inkscape:window-y="0"
     inkscape:window-maximized="1"
     inkscape:current-layer="svg3"
     inkscape:document-units="cm" />
  <defs
     id="defs1" />
  <rect
     x="-350"
     y="-300"
     width="2078.7402"
     height="2078.7402"
     style="fill:#4d4d4d;stroke:none;stroke-width:3.46457"
     id="rect1" />
  <g
     style="fill:#ffffff;fill-rule:nonzero;stroke:none"
     id="g2"
     transform="matrix(0,-3.7795276,3.7795276,0,689.37008,550.3937)">
    <path
       d="M -300,12 0,8 A 90,38 0 0 0 90,-30 H 200 L 60,-60 -50,-30 H 40 A 40,22 0 0 1 0,-8 l -300,-4 z"
       id="path1" />
    <path
       d="M -300,-12 0,-8 A 90,38 0 0 1 90,30 H 200 L 60,60 -50,30 H 40 A 40,22 0 0 0 0,8 l -300,4 z"
       id="path2" />
  </g>
</svg>
